<?xml version="1.0"?><svg width="640" height="480" xmlns="http://www.w3.org/2000/svg" xmlns:xlink="http://www.w3.org/1999/xlink">
 <!-- Created with SVG-edit - http://svg-edit.googlecode.com/ -->
 <g>
  <title>Layer 1</title>
  <defs>
   <symbol id="svg_19">
    <title>simple Facebook Icon</title>
    <metadata id="svg_18">image/svg+xmlsimple Facebook IconTavin15April 3rd  2010</metadata>
    <g id="svg_5">
     <g id="svg_6" transform="matrix(1.179,0,0,1.16402,-1064.99,-743.922) ">
      <rect id="svg_17" y="640.81659" x="905" ry="11.074254" rx="10.933528" height="51.54562" width="50.890606" fill="#6d84b4"/>
      <g id="svg_7">
       <g id="svg_8">
        <rect id="svg_16" y="643.20166" x="907.58337" ry="9.413079" rx="9.293463" height="46.312351" width="45.723835" fill="#3b5998"/>
        <rect ry="2.894775" x="911.32782" y="677.82922" width="39.855915" height="6.699668" id="svg_15" fill="#6d84b4"/>
        <g id="svg_9">
         <path id="svg_14" d="m938.495605,683.2677l-3.85199,-1.145996l-0.408997,-16.412048l-2.127991,-1.719971l-1.309998,-4.10199l3.437988,-0.737l0,-3.937988c0,-5.351013 2.217957,-8.53302 8.520996,-8.53302l3.937012,1.310974l0.244995,3.775024l-2.215027,1.473999c-2.453979,0 -2.615967,0.916992 -2.615967,2.627014l-0.009033,3.282959l5.333984,-0.028992l-0.813965,6.564026l-4.52002,0.140015l0.082031,16.132996l-3.684021,1.309998l0,0l0,0l0,0l0,0z" fill="#ffffff"/>
         <rect id="svg_13" width="15.631784" height="6.579015" x="929.90918" y="659.15895" ry="2.741256" fill="#ffffff"/>
         <rect id="svg_12" width="16.673903" height="7.921749" x="-684.70076" y="934.19354" ry="3.300729" transform="matrix(0,-1,1,0,0,0) " fill="#ffffff"/>
         <rect id="svg_11" width="8.973802" height="6.753906" x="939.80932" y="646.66341" ry="2.814128" fill="#ffffff"/>
         <path id="svg_10" d="m947.244568,659.156738c0.778076,-0.240479 1.286987,1.021179 1.136597,2.817932c-0.15033,1.796814 -0.902954,3.448303 -1.68103,3.688721c-0.168396,0.052002 -0.329529,0.033936 -0.475891,-0.053223" fill="#ffffff"/>
        </g>
       </g>
      </g>
     </g>
    </g>
   </symbol>
   <symbol id="svg_2" height="600" width="600" xmlns:xlink="http://www.w3.org/1999/xlink">
    <!-- Created with SVG-edit - http://svg-edit.googlecode.com/ -->
    <g>
     <title>Layer 1</title>
     <image x="0" y="0" width="600" height="600" id="svg_1" xlink:href="http://www.clker.com/cliparts/b/3/a/8/1298390552902187727button-facebook-hi.png"/>
    </g>
   </symbol>
  </defs>
  <use id="svg_20" xlink:href="#svg_19" transform="matrix(1.4982125389975371,0,0,1.8915293056074094,97.48469738927156,8.693843530626406) " y="55.868127" x="77.704803"/>
  <use x="-127.279548" y="72.973259" transform="matrix(0.6674855322752143,0,0,0.7934412209640307,-21.652792024674408,180.93768099305998) " xlink:href="#svg_2" id="svg_3"/>
 </g>
</svg>